<svg width="400" height="400" viewBox="0 0 400 400" fill="none" xmlns="http://www.w3.org/2000/svg">
<path d="M197.987 331.1L87.4168 267.317C86.0749 266.512 85.1803 265.08 85.1803 263.47V164.887C85.1803 163.188 87.0589 162.114 88.4903 162.919L107.873 175.884C109.662 176.958 111.899 175.616 111.899 173.558V125.519C111.899 123.641 110.915 121.852 109.215 120.868L63.7999 92.8739C62.458 92.0687 60.6689 92.0687 59.327 92.8739L39.1095 104.593C37.7676 105.398 36.873 106.829 36.873 108.44V291.56C36.873 293.17 37.7676 294.601 39.1095 295.407L197.718 387.011C199.06 387.817 200.849 387.817 202.191 387.011L335.394 310.078C337.183 309.004 337.183 306.499 335.394 305.426L293.886 281.451C292.186 280.467 290.218 280.467 288.518 281.451L202.549 331.1C201.207 331.905 199.418 331.905 198.076 331.1H197.987Z" fill="#212828"/>
<path d="M360.8 104.504L202.192 12.9881C200.85 12.183 199.06 12.183 197.719 12.9881L113.897 61.3848C112.107 62.4583 112.107 64.9632 113.897 66.0367L155.047 89.8325C156.747 90.8165 158.715 90.8165 160.415 89.8325L197.987 68.1836C199.329 67.3785 201.118 67.3785 202.46 68.1836L313.03 131.967C314.372 132.772 315.266 134.204 315.266 135.814V234.844C315.266 236.722 316.25 238.512 317.95 239.496L359.101 263.202C360.89 264.275 363.126 262.934 363.126 260.876V108.44C363.126 106.829 362.232 105.398 360.89 104.593L360.8 104.504Z" fill="#3D9D9F"/>
<path fill-rule="evenodd" clip-rule="evenodd" d="M156.249 204.31C155.178 204.31 154.309 205.179 154.309 206.25V250C154.309 251.071 155.178 251.94 156.249 251.94H243.749C244.821 251.94 245.689 251.071 245.689 250V206.25C245.689 205.179 244.821 204.31 243.749 204.31H156.249ZM133.189 206.25C133.189 193.514 143.514 183.19 156.249 183.19H243.749C256.485 183.19 266.809 193.514 266.809 206.25V250C266.809 262.736 256.485 273.06 243.749 273.06H156.249C143.514 273.06 133.189 262.736 133.189 250V206.25Z" fill="#3D9D9F"/>
<path fill-rule="evenodd" clip-rule="evenodd" d="M200.001 148.06C194.514 148.06 189.251 150.24 185.371 154.12C181.491 158 179.311 163.263 179.311 168.75V193.75C179.311 199.582 174.584 204.31 168.751 204.31C162.919 204.31 158.191 199.582 158.191 193.75V168.75C158.191 157.661 162.596 147.027 170.437 139.186C178.278 131.345 188.913 126.94 200.001 126.94C211.09 126.94 221.725 131.345 229.566 139.186C237.406 147.027 241.811 157.661 241.811 168.75V193.75C241.811 199.582 237.084 204.31 231.251 204.31C225.419 204.31 220.691 199.582 220.691 193.75V168.75C220.691 163.263 218.512 158 214.631 154.12C210.751 150.24 205.489 148.06 200.001 148.06Z" fill="#3D9D9F"/>
</svg>
